<?xml version="1.0" standalone="yes"?>
<svg xmlns="http://www.w3.org/2000/svg" width="559" height="447">
<path style="fill:#030203; stroke:none;" d="M0 0L0 447L559 447L559 0L0 0z"/>
<path style="fill:#bcbdbe; stroke:none;" d="M313 74L314 75L313 74z"/>
<path style="fill:#5a578c; stroke:none;" d="M314 74L316 76L314 74z"/>
<path style="fill:#bcbdbe; stroke:none;" d="M315 74L316 75L315 74z"/>
<path style="fill:#5a578c; stroke:none;" d="M312.667 75.3333L313.333 75.6667L312.667 75.3333z"/>
<path style="fill:#bcbdbe; stroke:none;" d="M310 76L311 77L310 76z"/>
<path style="fill:#5a578c; stroke:none;" d="M311 76L312 77L311 76z"/>
<path style="fill:#bcbdbe; stroke:none;" d="M315 76L316 77L315 76M308 77L309 78L308 77z"/>
<path style="fill:#5a578c; stroke:none;" d="M309 77L310 78L309 77M314 77L315 78L314 77z"/>
<path style="fill:#bcbdbe; stroke:none;" d="M307 78L308 79L307 78M314 78L315 79L314 78M305 79L306 80L305 79z"/>
<path style="fill:#5a578c; stroke:none;" d="M306 79L307 80L306 79z"/>
<path style="fill:#bcbdbe; stroke:none;" d="M313 79L314 80L313 79M304 80L305 81L304 80z"/>
<path style="fill:#5a578c; stroke:none;" d="M308 80L307 84L310 80L308 80M312 80L313 81L312 80M303 81L304 82L303 81z"/>
<path style="fill:#dbb42e; stroke:none;" d="M259 140C279.615 125.478 296.774 102.938 309 81C287.564 90.0621 265.346 117.803 259 140z"/>
<path style="fill:#bcbdbe; stroke:none;" d="M301 82L300 84L301 82z"/>
<path style="fill:#5a578c; stroke:none;" d="M305 82L306 83L305 82z"/>
<path style="fill:#bcbdbe; stroke:none;" d="M311 82L312 83L311 82z"/>
<path style="fill:#5a578c; stroke:none;" d="M304 83L305 84L304 83M310 83L311 84L310 83M299 84L300 85L299 84M302 84L303 85L302 84M309 84L310 85L309 84z"/>
<path style="fill:#bcbdbe; stroke:none;" d="M297 85L298 86L297 85z"/>
<path style="fill:#5a578c; stroke:none;" d="M298 85L299 86L298 85M301 85L302 86L301 85M306 85L307 86L306 85z"/>
<path style="fill:#bcbdbe; stroke:none;" d="M309 85L310 86L309 85M296 86L297 87L296 86z"/>
<path style="fill:#5a578c; stroke:none;" d="M300 86L301 87L300 86M305 86L306 87L305 86z"/>
<path style="fill:#bcbdbe; stroke:none;" d="M308 86L309 87L308 86z"/>
<path style="fill:#5a578c; stroke:none;" d="M295 87L296 88L295 87M298 87L299 88L298 87M307 87L308 88L307 87M294 88L295 89L294 88M297 88L298 89L297 88M306 88L307 89L306 88z"/>
<path style="fill:#bcbdbe; stroke:none;" d="M292 89L291 91L292 89z"/>
<path style="fill:#5a578c; stroke:none;" d="M293 89L294 90L293 89M296 89L297 90L296 89M303 89L304 90L303 89z"/>
<path style="fill:#bcbdbe; stroke:none;" d="M306 89L307 90L306 89z"/>
<path style="fill:#5a578c; stroke:none;" d="M292 90L293 91L292 90M295 90L296 91L295 90M302 90L303 91L302 90z"/>
<path style="fill:#bcbdbe; stroke:none;" d="M305 90L306 91L305 90M290 91L291 92L290 91z"/>
<path style="fill:#5a578c; stroke:none;" d="M294 91L295 92L294 91M304 91L305 92L304 91z"/>
<path style="fill:#bcbdbe; stroke:none;" d="M289 92L290 93L289 92z"/>
<path style="fill:#5a578c; stroke:none;" d="M303 92L304 93L303 92z"/>
<path style="fill:#bcbdbe; stroke:none;" d="M288 93L289 94L288 93z"/>
<path style="fill:#5a578c; stroke:none;" d="M300 93L301 94L300 93z"/>
<path style="fill:#bcbdbe; stroke:none;" d="M303 93L304 94L303 93M341 93L342 94L341 93z"/>
<path style="fill:#5a578c; stroke:none;" d="M342 93L344 95L342 93z"/>
<path style="fill:#bcbdbe; stroke:none;" d="M343 93L344 94L343 93z"/>
<path style="fill:#5a578c; stroke:none;" d="M287 94L288 95L287 94M290 94L291 95L290 94M299 94L300 95L299 94z"/>
<path style="fill:#bcbdbe; stroke:none;" d="M302 94L303 95L302 94z"/>
<path style="fill:#5a578c; stroke:none;" d="M286 95L287 96L286 95M289 95L290 96L289 95M301 95L302 96L301 95z"/>
<path style="fill:#bcbdbe; stroke:none;" d="M340 95L341 96L340 95M343.333 95.6667L343.667 96.3333L343.333 95.6667z"/>
<path style="fill:#5a578c; stroke:none;" d="M285 96L286 97L285 96M288 96L289 97L288 96M300 96L301 97L300 96M340 96L341 97L340 96M284 97L285 98L284 97M287 97L288 98L287 97M297 97L298 98L297 97z"/>
<path style="fill:#bcbdbe; stroke:none;" d="M300 97L301 98L300 97z"/>
<path style="fill:#5a578c; stroke:none;" d="M283 98L284 99L283 98M286 98L287 99L286 98M296 98L297 99L296 98z"/>
<path style="fill:#bcbdbe; stroke:none;" d="M299 98L300 99L299 98M339 98L340 99L339 98z"/>
<path style="fill:#5a578c; stroke:none;" d="M282 99L283 100L282 99M285 99L286 100L285 99M298 99L299 100L298 99M339 99L340 100L339 99M342 99L342 102L343 102L342 99M281 100L282 101L281 100M284 100L285 101L284 100M295 100L296 101L295 100M297 100L298 101L297 100z"/>
<path style="fill:#bcbdbe; stroke:none;" d="M338 100L339 101L338 100z"/>
<path style="fill:#5a578c; stroke:none;" d="M280 101L281 102L280 101M283 101L284 102L283 101M294 101L295 102L294 101z"/>
<path style="fill:#bcbdbe; stroke:none;" d="M297 101L298 102L297 101z"/>
<path style="fill:#5a578c; stroke:none;" d="M338 101L339 102L338 101M279 102L280 103L279 102M282 102L283 103L282 102M296 102L297 103L296 102z"/>
<path style="fill:#bcbdbe; stroke:none;" d="M337 102L338 103L337 102M342.333 102.667L342.667 103.333L342.333 102.667z"/>
<path style="fill:#5a578c; stroke:none;" d="M278 103L279 104L278 103M281 103L282 104L281 103M295 103L296 104L295 103M337.333 103.667L337.667 104.333L337.333 103.667z"/>
<path style="fill:#bcbdbe; stroke:none;" d="M277 104L278 105L277 104z"/>
<path style="fill:#5a578c; stroke:none;" d="M280 104L281 105L280 104M292 104L293 105L292 104z"/>
<path style="fill:#bcbdbe; stroke:none;" d="M295 104L296 105L295 104M276 105L277 106L276 105z"/>
<path style="fill:#5a578c; stroke:none;" d="M279 105L280 106L279 105z"/>
<path style="fill:#bcbdbe; stroke:none;" d="M294 105L295 106L294 105M336 105L337 106L336 105z"/>
<path style="fill:#5a578c; stroke:none;" d="M339 105L340 108L339 105z"/>
<path style="fill:#bcbdbe; stroke:none;" d="M275 106L276 107L275 106z"/>
<path style="fill:#5a578c; stroke:none;" d="M278 106L279 107L278 106M293 106L294 107L293 106M336 106L337 107L336 106M341 106L341 109L342 109L341 106M275 107L276 108L275 107M290 107L291 108L290 107z"/>
<path style="fill:#bcbdbe; stroke:none;" d="M293 107L294 108L293 107M335 107L336 108L335 107z"/>
<path style="fill:#dbb42e; stroke:none;" d="M338 107C334.47 116.099 322.134 128.608 323 138C333.624 133.265 342.944 118.893 338 107z"/>
<path style="fill:#5a578c; stroke:none;" d="M274 108L275 109L274 108M292 108L293 109L292 108M335 108L336 109L335 108M337 108L338 109L337 108M273 109L274 110L273 109M276 109L277 110L276 109M289 109L290 110L289 109M291 109L292 110L291 109z"/>
<path style="fill:#bcbdbe; stroke:none;" d="M334 109L335 110L334 109M341 109L341 112L342 112L341 109M272 110L273 111L272 110z"/>
<path style="fill:#5a578c; stroke:none;" d="M275 110L276 111L275 110z"/>
<path style="fill:#bcbdbe; stroke:none;" d="M291 110L292 111L291 110z"/>
<path style="fill:#5a578c; stroke:none;" d="M334 110L335 111L334 110M336 110L337 111L336 110z"/>
<path style="fill:#bcbdbe; stroke:none;" d="M271 111L272 112L271 111z"/>
<path style="fill:#5a578c; stroke:none;" d="M274 111L275 112L274 111M290 111L291 112L290 111z"/>
<path style="fill:#bcbdbe; stroke:none;" d="M300.667 111.333L301.333 111.667L300.667 111.333M333 111L334 112L333 111z"/>
<path style="fill:#5a578c; stroke:none;" d="M271 112L272 113L271 112z"/>
<path style="fill:#bcbdbe; stroke:none;" d="M290 112L291 113L290 112M298 112L299 113L298 112z"/>
<path style="fill:#5a578c; stroke:none;" d="M299 112L300 113L299 112M302.667 112.333L303.333 112.667L302.667 112.333z"/>
<path style="fill:#bcbdbe; stroke:none;" d="M304.667 112.333L305.333 112.667L304.667 112.333z"/>
<path style="fill:#5a578c; stroke:none;" d="M333 112L334 113L333 112M335.333 112.667L335.667 113.333L335.333 112.667M270 113L271 114L270 113M289 113L290 114L289 113M298 113L299 114L298 113M306.667 113.333L307.333 113.667L306.667 113.333z"/>
<path style="fill:#bcbdbe; stroke:none;" d="M308 113L309 114L308 113M332 113L333 114L332 113M269 114L270 115L269 114z"/>
<path style="fill:#5a578c; stroke:none;" d="M272 114L273 115L272 114z"/>
<path style="fill:#bcbdbe; stroke:none;" d="M289 114L290 115L289 114z"/>
<path style="fill:#5a578c; stroke:none;" d="M297 114L298 115L297 114M300 114L295 120L300 114z"/>
<path style="fill:#dbb42e; stroke:none;" d="M286 133C292.562 133.927 306.628 122.139 311 117C299.076 113.189 290.385 121.681 286 133z"/>
<path style="fill:#5a578c; stroke:none;" d="M302 114L302 115L305 115L302 114M309 114L310 115L309 114z"/>
<path style="fill:#bcbdbe; stroke:none;" d="M310 114L311 115L310 114z"/>
<path style="fill:#5a578c; stroke:none;" d="M332 114L333 115L332 114M334.333 114.667L334.667 115.333L334.333 114.667M338 114L338 118L339 118L338 114M271 115L272 116L271 115M286 115L287 116L286 115M288 115L289 116L288 115M296 115L297 116L296 115M306.667 115.333L307.333 115.667L306.667 115.333M311.667 115.333L312.333 115.667L311.667 115.333z"/>
<path style="fill:#bcbdbe; stroke:none;" d="M331 115L332 116L331 115z"/>
<path style="fill:#5a578c; stroke:none;" d="M340 115L340 119L341 119L340 115M268 116L269 117L268 116z"/>
<path style="fill:#bcbdbe; stroke:none;" d="M288 116L289 117L288 116M295 116L296 117L295 116z"/>
<path style="fill:#5a578c; stroke:none;" d="M309 116L310 117L309 116M313.667 116.333L314.333 116.667L313.667 116.333M331 116L332 117L331 116M333.333 116.667L333.667 117.333L333.333 116.667z"/>
<path style="fill:#bcbdbe; stroke:none;" d="M267 117L268 118L267 117z"/>
<path style="fill:#5a578c; stroke:none;" d="M270 117L271 118L270 117M285 117L286 118L285 117M288 117L288 118L293 118L288 117z"/>
<path style="fill:#bcbdbe; stroke:none;" d="M293 117L294 118L293 117z"/>
<path style="fill:#5a578c; stroke:none;" d="M294 117L295 118L294 117M311 117L312 118L311 117z"/>
<path style="fill:#bcbdbe; stroke:none;" d="M330 117L331 118L330 117z"/>
<path style="fill:#5a578c; stroke:none;" d="M267 118L268 119L267 118M269 118L270 119L269 118M282 118L283 119L282 118M310 118L311 119L310 118M314 118L315 119L314 118M330 118L331 119L330 118M332 118L333 119L332 118M357 128L368 119C363.284 118.9 359.532 124.405 357 128z"/>
<path style="fill:#bcbdbe; stroke:none;" d="M368 118L368 121L369 121L368 118z"/>
<path style="fill:#5a578c; stroke:none;" d="M266 119L267 120L266 119M309 119L310 120L309 119z"/>
<path style="fill:#bcbdbe; stroke:none;" d="M313 119L314 120L313 119M329 119L330 120L329 119M340.333 119.667L340.667 120.333L340.333 119.667M265 120L266 121L265 120z"/>
<path style="fill:#5a578c; stroke:none;" d="M268 120L269 121L268 120M229 175L208 185L208 186C230.473 186 254.09 191.889 260.101 217C261.879 224.426 261.321 231.517 261 239C275.308 236.039 291.044 230.512 303 222L304 226C330.803 218.113 349.984 183.387 356 158C342.575 157.963 325.51 162.961 320.868 178C319.131 183.627 323.958 189.706 320.396 194.906C316.312 200.867 298.314 209.34 291.015 209.154C285.242 209.006 283.811 201.07 286.603 197.108C292.205 189.159 306.827 188.032 314.856 183.292C320.044 180.228 322.406 171.476 327.015 167.09C340.674 154.092 364.094 147.094 365 126L364 126C357.522 139.614 336.189 160.063 321 163L319 156L303 160C299.909 150.747 304.573 146.031 312.001 140.374C314.767 138.268 320.595 135.113 320.654 131.09C320.713 127.113 312.477 122.545 309 122.977C297.119 124.453 295.104 138.67 282 134L291 120C281.662 120.2 276.628 126.178 270.285 132.424C257.614 144.905 248.33 157.466 239.957 172.981C237.518 177.5 232.239 179.996 229 175M307 120L308 121L307 120z"/>
<path style="fill:#bcbdbe; stroke:none;" d="M312 120L313 121L312 120z"/>
<path style="fill:#5a578c; stroke:none;" d="M331 120L332 121L331 120M265 121L266 122L265 121M267 121L268 122L267 121M278 121L279 122L278 121M305 121L306 122L305 121M313 121L314 122L313 121M328 121L329 122L328 121M264 122L265 123L264 122M277 122L278 123L277 122M293 122L294 123L293 122M304 122L305 123L304 122z"/>
<path style="fill:#bcbdbe; stroke:none;" d="M315 122L316 123L315 122z"/>
<path style="fill:#5a578c; stroke:none;" d="M330 122L331 123L330 122M337.333 122.667L337.667 123.333L337.333 122.667M266 123L267 124L266 123M276 123L277 124L276 123M292 123L293 124L292 123M302 123L303 124L302 123M316 123L317 124L316 123M327 123L328 124L327 123M339.333 123.667L339.667 124.333L339.333 123.667M263 124L264 125L263 124M275 124L276 125L275 124M291 124L292 125L291 124z"/>
<path style="fill:#bcbdbe; stroke:none;" d="M318 124L319 125L318 124M326 124L327 125L326 124z"/>
<path style="fill:#5a578c; stroke:none;" d="M367 124L367 127L368 127L367 124z"/>
<path style="fill:#bcbdbe; stroke:none;" d="M262 125L263 126L262 125z"/>
<path style="fill:#5a578c; stroke:none;" d="M265 125L266 126L265 125M274 125L275 126L274 125M290 125L291 126L290 125M299 125L300 126L299 125M319 125L320 126L319 125M328 125L329 126L328 125z"/>
<path style="fill:#bcbdbe; stroke:none;" d="M339 125L340 126L339 125M358 125L359 126L358 125M379 125L376 129L379 125z"/>
<path style="fill:#5a578c; stroke:none;" d="M380 125L381 126L380 125M384 125L385 126L384 125M262 126L263 127L262 126M264.333 126.667L264.667 127.333L264.333 126.667M273 126L274 127L273 126M289 126L290 127L289 126M298 126L299 127L298 126z"/>
<path style="fill:#bcbdbe; stroke:none;" d="M321 126L322 127L321 126z"/>
<path style="fill:#5a578c; stroke:none;" d="M325 126L326 127L325 126M336 126L337 127L336 126z"/>
<path style="fill:#bcbdbe; stroke:none;" d="M357 126L358 127L357 126M386 126L388 128L386 126M261 127L262 128L261 127z"/>
<path style="fill:#5a578c; stroke:none;" d="M272 127L273 128L272 127M296 127L297 128L296 127M322 127L323 128L322 127M324 127L325 128L324 127M338 127L339 128L338 127z"/>
<path style="fill:#bcbdbe; stroke:none;" d="M356 127L357 128L356 127z"/>
<path style="fill:#5a578c; stroke:none;" d="M360 127L359 130L360 127z"/>
<path style="fill:#bcbdbe; stroke:none;" d="M367.333 127.667L367.667 128.333L367.333 127.667z"/>
<path style="fill:#5a578c; stroke:none;" d="M378 130L382 128L378 130z"/>
<path style="fill:#dbb42e; stroke:none;" d="M357 201C366.684 195.079 359.125 181.338 373 178C375.122 188.901 383.709 191.831 388.891 179.999C394.126 168.046 395.129 140.847 386.147 130.244C379.51 122.41 374.084 138.605 372.425 143C365.395 161.626 360.785 181.48 357 201z"/>
<path style="fill:#5a578c; stroke:none;" d="M383 127L384 128L383 127M261 128L262 129L261 128M263 128L264 129L263 128M271 128L272 129L271 128M295 128L296 129L295 128M323 128L324 129L323 128M326 128L327 129L326 128z"/>
<path style="fill:#bcbdbe; stroke:none;" d="M355 128L356 129L355 128z"/>
<path style="fill:#5a578c; stroke:none;" d="M385 128L386 129L385 128z"/>
<path style="fill:#bcbdbe; stroke:none;" d="M260 129L261 130L260 129z"/>
<path style="fill:#5a578c; stroke:none;" d="M270 129L271 130L270 129M287 129L288 130L287 129M294 129L295 130L294 129M325 129L326 130L325 129M334 129L335 130L334 129M354 129L355 130L354 129z"/>
<path style="fill:#dbb42e; stroke:none;" d="M358 129L338 143L337 131C327.312 136.593 325.039 140.671 329 151C324.506 153 322.159 154.88 323 160C333.158 156.757 343.467 147.333 350.985 139.961C353.937 137.066 358.218 133.329 358 129z"/>
<path style="fill:#5a578c; stroke:none;" d="M376 129L377 130L376 129M388 129L389 130L388 129M260 130L261 131L260 130M262 130L263 131L262 130M286 130L287 131L286 130M293 130L294 131L293 130M333 130L334 131L333 130M336 130L337 131L336 130M353 130L354 131L353 130M356 130L357 131L356 130M375 130L376 131L375 130M386 130L387 131L386 130z"/>
<path style="fill:#bcbdbe; stroke:none;" d="M389 130L390 131L389 130M259 131L260 132L259 131z"/>
<path style="fill:#5a578c; stroke:none;" d="M268 131L269 132L268 131M292 131L293 132L292 131M324 131L325 132L324 131M332 131L333 132L332 131M335 131L336 132L335 131z"/>
<path style="fill:#bcbdbe; stroke:none;" d="M351 131L352 132L351 131z"/>
<path style="fill:#5a578c; stroke:none;" d="M352 131L353 132L352 131M355 131L356 132L355 131M358 131L359 132L358 131z"/>
<path style="fill:#bcbdbe; stroke:none;" d="M374 131L375 132L374 131z"/>
<path style="fill:#5a578c; stroke:none;" d="M377 131L378 132L377 131M383.667 131.333L384.333 131.667L383.667 131.333M387 131L388 132L387 131M389 131L390 132L389 131M259 132L260 133L259 132M261.333 132.667L261.667 133.333L261.333 132.667M267 132L268 133L267 132M285 132L286 133L285 132M291 132L292 133L291 132M323 132L324 133L323 132M334 132L335 133L334 132z"/>
<path style="fill:#bcbdbe; stroke:none;" d="M350 132L351 133L350 132z"/>
<path style="fill:#5a578c; stroke:none;" d="M354 132L355 133L354 132M357 132L358 133L357 132M374 132L375 133L374 132M376.333 132.667L376.667 133.333L376.333 132.667M381 132L382 133L381 132z"/>
<path style="fill:#030203; stroke:none;" d="M382.579 133.082C380.166 134.893 382.936 138.747 385.372 136.918C387.694 135.175 384.97 131.286 382.579 133.082z"/>
<path style="fill:#bcbdbe; stroke:none;" d="M390 132L391 133L390 132M258 133L259 134L258 133z"/>
<path style="fill:#5a578c; stroke:none;" d="M266 133L267 134L266 133M286 133L287 134L286 133M290 133L291 134L290 133M322 133L323 134L322 133z"/>
<path style="fill:#bcbdbe; stroke:none;" d="M339 133L339 137L340 137L339 133z"/>
<path style="fill:#5a578c; stroke:none;" d="M349 133L350 134L349 133M356 133L357 134L356 133M366 133L366 138L367 138L366 133z"/>
<path style="fill:#bcbdbe; stroke:none;" d="M373 133L374 134L373 133z"/>
<path style="fill:#5a578c; stroke:none;" d="M386 133L387 134L386 133M388.333 133.667L388.667 134.333L388.333 133.667M390 133L391 134L390 133M258 134L259 135L258 134M265 134L266 135L265 134z"/>
<path style="fill:#030203; stroke:none;" d="M270 134C270 138.75 267.345 157.155 271.603 159.867C276.146 162.761 292.757 152.467 297 150L297 148L270 134z"/>
<path style="fill:#5a578c; stroke:none;" d="M288.667 134.333L289.333 134.667L288.667 134.333M328 134L329 135L328 134z"/>
<path style="fill:#bcbdbe; stroke:none;" d="M347 134L348 135L347 134z"/>
<path style="fill:#5a578c; stroke:none;" d="M351 134L352 135L351 134M373 134L374 135L373 134M375.333 134.667L375.667 135.333L375.333 134.667M380 134L380 137L381 137L380 134M260 135L261 136L260 135M264 135L265 136L264 135M321 135L322 136L321 135M327 135L328 136L327 135M330 135L331 136L330 135M346 135L347 136L346 135M350 135L351 136L350 135z"/>
<path style="fill:#bcbdbe; stroke:none;" d="M391 135L392 136L391 135M257 136L258 137L257 136z"/>
<path style="fill:#5a578c; stroke:none;" d="M263 136L264 137L263 136M322 136L323 137L322 136M329 136L330 137L329 136z"/>
<path style="fill:#bcbdbe; stroke:none;" d="M344 136L345 137L344 136z"/>
<path style="fill:#5a578c; stroke:none;" d="M345 136L346 137L345 136M348 136L349 137L348 136M372.333 136.667L372.667 137.333L372.333 136.667M374.333 136.667L374.667 137.333L374.333 136.667M389.333 136.667L389.667 137.333L389.333 136.667M391.333 136.667L391.667 137.333L391.333 136.667M257 137L258 138L257 137M259 137L260 138L259 137M262 137L263 138L262 137M272 137L273 138L272 137M319 137L319 138L322 139L319 137M328 137L329 138L328 137M339 137L341 140L339 137M343 137L344 138L343 137M347 137L348 138L347 137M381 137L382 138L381 137z"/>
<path style="fill:#bcbdbe; stroke:none;" d="M256 138L257 139L256 138z"/>
<path style="fill:#5a578c; stroke:none;" d="M261 138L262 139L261 138z"/>
<path style="fill:#dbb42e; stroke:none;" d="M272 138L273 158L292 150L292 148L272 138z"/>
<path style="fill:#5a578c; stroke:none;" d="M274 138L275 139L274 138z"/>
<path style="fill:#dbb42e; stroke:none;" d="M310 157L326 150C325.06 146.757 324.062 140.745 320.61 139.172C310.054 134.362 308.9 151.667 310 157z"/>
<path style="fill:#5a578c; stroke:none;" d="M337 138L337 142L338 142L337 138z"/>
<path style="fill:#bcbdbe; stroke:none;" d="M341 138L342 139L341 138z"/>
<path style="fill:#5a578c; stroke:none;" d="M342 138L343 139L342 138M345 138L346 139L345 138z"/>
<path style="fill:#bcbdbe; stroke:none;" d="M371 138L372 139L371 138z"/>
<path style="fill:#5a578c; stroke:none;" d="M382 138L382 139L385 139L382 138M256.333 139.667L256.667 140.333L256.333 139.667M260 139L261 140L260 139M276 139L277 140L276 139M316 139L317 140L316 139M325 139L326 140L325 139M344 139L345 140L344 139z"/>
<path style="fill:#bcbdbe; stroke:none;" d="M365 139L362 143L365 139z"/>
<path style="fill:#5a578c; stroke:none;" d="M371 139L372 140L371 139M373.333 139.667L373.667 140.333L373.333 139.667z"/>
<path style="fill:#bcbdbe; stroke:none;" d="M392 139L393 140L392 139z"/>
<path style="fill:#5a578c; stroke:none;" d="M258 140L258 142L260 140L258 140M277 140L278 141L277 140M315 140L316 141L315 140M322 140L323 141L322 140M342 140L343 141L342 140M390 140L390 143L391 143L390 140M392.333 140.667L392.667 141.333L392.333 140.667M279 141L280 142L279 141M325 141L326 142L325 141M340.667 141.333L341.333 141.667L340.667 141.333M370 141L371 142L370 141z"/>
<path style="fill:#bcbdbe; stroke:none;" d="M255 142L256 143L255 142z"/>
<path style="fill:#5a578c; stroke:none;" d="M281 142L282 143L281 142M312 142L313 143L312 142M323 142L324 143L323 142M338.667 142.333L339.333 142.667L338.667 142.333M361 142L362 143L361 142M372 142L373 143L372 142M255.333 143.667L255.667 144.333L255.333 143.667M283 143L284 144L283 143M311 143L312 144L311 143M326 143L327 144L326 143M360 143L361 144L360 143M285 144L286 145L285 144M309 144L310 145L309 144M324 144L325 145L324 144M345 144L346 145L345 144M359 144L360 145L359 144M369 144L367 147L369 144M371.333 144.667L371.667 145.333L371.333 144.667z"/>
<path style="fill:#bcbdbe; stroke:none;" d="M393 144L394 145L393 144M254 145L255 146L254 145z"/>
<path style="fill:#030203; stroke:none;" d="M260 145C256.23 149.906 250.189 156.847 248.887 163C247.89 167.705 252.411 184.473 257.225 186.357C262.66 188.485 272.206 185.222 278 185.011C282.822 184.835 293.761 185.614 297.436 182.258C301.383 178.653 301.605 169.001 302 164L276 165.855L266.314 164.523L260 145z"/>
<path style="fill:#5a578c; stroke:none;" d="M286 145L287 146L286 145M308 145L309 146L308 145M344 145L345 146L344 145M358 145L359 146L358 145M391 145L391 149L392 149L391 145M393 145L393 148L394 148L393 145M254 146L255 147L254 146M288 146L289 147L288 146M307 146L307 149L308 149L307 146M327.333 146.667L327.667 147.333L327.333 146.667M343 146L344 147L343 146z"/>
<path style="fill:#bcbdbe; stroke:none;" d="M357 146L358 147L357 146z"/>
<path style="fill:#5a578c; stroke:none;" d="M385 146L386 147L385 146z"/>
<path style="fill:#bcbdbe; stroke:none;" d="M253 147L254 148L253 147z"/>
<path style="fill:#5a578c; stroke:none;" d="M290 147L291 148L290 147M325.333 147.667L325.667 148.333L325.333 147.667z"/>
<path style="fill:#bcbdbe; stroke:none;" d="M365 147L366 148L365 147z"/>
<path style="fill:#5a578c; stroke:none;" d="M370.333 147.667L370.667 148.333L370.333 147.667M383 147L382 149L383 147z"/>
<path style="fill:#030203; stroke:none;" d="M384.278 148.171C381.909 149.431 383.075 153.238 385.722 151.829C388.091 150.568 386.925 146.763 384.278 148.171z"/>
<path style="fill:#5a578c; stroke:none;" d="M387 147L388 148L387 147z"/>
<path style="fill:#bcbdbe; stroke:none;" d="M252 148L253 149L252 148z"/>
<path style="fill:#5a578c; stroke:none;" d="M292.333 148.667L292.667 149.333L292.333 148.667M354 148L353 150L354 148M364 148L365 149L364 148z"/>
<path style="fill:#bcbdbe; stroke:none;" d="M251 149L252 150L251 149z"/>
<path style="fill:#5a578c; stroke:none;" d="M339 149L340 150L339 149z"/>
<path style="fill:#bcbdbe; stroke:none;" d="M362 149L363 150L362 149z"/>
<path style="fill:#5a578c; stroke:none;" d="M363 149L364 150L363 149M365 150L365 151L368 151L368 150L365 150M388.333 149.667L388.667 150.333L388.333 149.667M251 150L252 151L251 150z"/>
<path style="fill:#dbb42e; stroke:none;" d="M259 150C256.597 154.515 251.842 159.781 251.459 165C249.927 185.879 266.357 184.014 281 182.285C285.313 181.776 291.805 182.935 295.436 180.012C298.595 177.469 298.704 170.723 299 167C291.852 167 270.712 172.174 265.563 167.397C261.306 163.446 261.669 154.983 259 150z"/>
<path style="fill:#5a578c; stroke:none;" d="M290 150L291 151L290 150M302 154L303 154L304 151L306 153L307 153L306 150L302 154M308.333 150.667L308.667 151.333L308.333 150.667M328 150L329 151L328 150M338 150L339 151L338 150z"/>
<path style="fill:#bcbdbe; stroke:none;" d="M352 150L353 151L352 150M360 150L361 151L360 150z"/>
<path style="fill:#5a578c; stroke:none;" d="M361 150L362 151L361 150z"/>
<path style="fill:#dbb42e; stroke:none;" d="M366 150C355.355 156.501 349.386 179.156 346 191L354 199L363.291 164L366 150z"/>
<path style="fill:#5a578c; stroke:none;" d="M369.333 150.667L369.667 151.333L369.333 150.667M250 151L251 152L250 151M258 151L259 152L258 151M288 151L289 152L288 151z"/>
<path style="fill:#dbb42e; stroke:none;" d="M304 151L304 157L306 157L306 151L304 151z"/>
<path style="fill:#5a578c; stroke:none;" d="M327 151L328 152L327 151M350 151L349 153L350 151z"/>
<path style="fill:#bcbdbe; stroke:none;" d="M358 151L359 152L358 151z"/>
<path style="fill:#5a578c; stroke:none;" d="M363 151L364 152L363 151M387 151L388 152L387 151M249 152L250 153L249 152M260.333 152.667L260.667 153.333L260.333 152.667M272 152L274 159L272 152M286 152L287 153L286 152M321 152L322 153L321 152M325 152L326 153L325 152M335 152L336 153L335 152M361 152L362 153L361 152M382 152L383 153L382 152M386 152L387 153L386 152z"/>
<path style="fill:#bcbdbe; stroke:none;" d="M394.333 152.667L394.667 153.333L394.333 152.667z"/>
<path style="fill:#5a578c; stroke:none;" d="M248 153L249 154L248 153M283.667 153.333L284.333 153.667L283.667 153.333M319 153L320 154L319 153M323 153L324 154L323 153M334 153L335 154L334 153z"/>
<path style="fill:#bcbdbe; stroke:none;" d="M348 153L349 154L348 153M357 153L358 154L357 153z"/>
<path style="fill:#5a578c; stroke:none;" d="M366 153L367 154L366 153M368.333 153.667L368.667 154.333L368.333 153.667M384 153L385 154L384 153M247 154L248 155L247 154M256 154L257 155L256 154M281 154L282 155L281 154M307.333 154.667L307.667 155.333L307.333 154.667M309 154L310 155L309 154M317 154L318 155L317 154M321 154L321 157L322 157L323 154L321 154M332 154L333 155L332 154M346 154L357 156L357 155L346 154M357 154L358 155L357 154M359.333 154.667L359.667 155.333L359.333 154.667M392 154L392 166L393 166L392 154M394 154L394 166L395 166L394 154z"/>
<path style="fill:#bcbdbe; stroke:none;" d="M210 172L211 172L212 160C214.882 162.623 217.406 164.795 219 160C222.965 164.699 225.548 166.265 230 161C221.364 159.713 210.033 148.937 210 164.998L210 172M246 155L247 156L246 155z"/>
<path style="fill:#5a578c; stroke:none;" d="M279 155L280 156L279 155M303 155L304 156L303 155M314.667 155.333L315.333 155.667L314.667 155.333M331 155L332 156L331 155M255 156L256 157L255 156M261.333 156.667L261.667 157.333L261.333 156.667M277 156L278 157L277 156M306 156L307 157L306 156M312.667 156.333L313.333 156.667L312.667 156.333M330 156L331 157L330 156M365 156L366 157L365 156z"/>
<path style="fill:#bcbdbe; stroke:none;" d="M244 157L245 158L244 157z"/>
<path style="fill:#5a578c; stroke:none;" d="M245 157L246 158L245 157M254 157L255 158L254 157M274.667 157.333L275.333 157.667L274.667 157.333M328 157L329 158L328 157M358.333 157.667L358.667 158.333L358.333 157.667M367 157L368 158L367 157z"/>
<path style="fill:#bcbdbe; stroke:none;" d="M242 158L243 159L242 158z"/>
<path style="fill:#5a578c; stroke:none;" d="M243 158L244 159L243 158M322.333 158.667L322.667 159.333L322.333 158.667M327 158L328 159L327 158z"/>
<path style="fill:#bcbdbe; stroke:none;" d="M240 159L241 160L240 159z"/>
<path style="fill:#5a578c; stroke:none;" d="M241 159L242 160L241 159M253 159L254 160L253 159M325 159L326 160L325 159M364.333 159.667L364.667 160.333L364.333 159.667z"/>
<path style="fill:#bcbdbe; stroke:none;" d="M238 160L239 161L238 160z"/>
<path style="fill:#5a578c; stroke:none;" d="M239 160L240 161L239 160M252.333 160.667L252.667 161.333L252.333 160.667M262 160L263 161L262 160M323 160L324 161L323 160M357.333 160.667L357.667 161.333L357.333 160.667M366 160L367 161L366 160z"/>
<path style="fill:#bcbdbe; stroke:none;" d="M237 161L238 162L237 161z"/>
<path style="fill:#dbb42e; stroke:none;" d="M242 161C236.661 165.122 232.644 167.902 232 175C237.91 174.53 242.862 166.788 242 161z"/>
<path style="fill:#5a578c; stroke:none;" d="M243 161L244 162L243 161M383 161L382 163L383 161z"/>
<path style="fill:#030203; stroke:none;" d="M384.275 162.341C381.812 163.287 383.05 167.144 385.606 166.249C388.089 165.38 386.774 161.381 384.275 162.341z"/>
<path style="fill:#5a578c; stroke:none;" d="M386 161L387 162L386 161z"/>
<path style="fill:#bcbdbe; stroke:none;" d="M235 162L234 164L235 162z"/>
<path style="fill:#5a578c; stroke:none;" d="M236 162L237 163L236 162M240 162L241 163L240 162M251 162L252 163L251 162M387 162L388 163L387 162M235 163L236 164L235 163M238 163L239 164L238 163M242 163L243 164L242 163M250 163L250 166L251 166L250 163M263 163L264 164L263 163M356 163L357 164L356 163M363.333 163.667L363.667 164.333L363.333 163.667M388 163L389 164L388 163z"/>
<path style="fill:#bcbdbe; stroke:none;" d="M233 164L234 165L233 164z"/>
<path style="fill:#5a578c; stroke:none;" d="M237 164L238 165L237 164M365 164L366 165L365 164z"/>
<path style="fill:#bcbdbe; stroke:none;" d="M231 165L232 166L231 165z"/>
<path style="fill:#5a578c; stroke:none;" d="M232 165L233 166L232 165M241 165L242 166L241 165M387 165L388 166L387 165M231 166L232 167L231 166M234 166L235 167L234 166M240 166L240 169L241 169L240 166M264.333 166.667L264.667 167.333L264.333 166.667M291 166L291 167L299 169C300.541 164.911 293.616 166 291 166M355 166L356 167L355 166M362 166L362 169L363 169L362 166M382 166L383 167L382 166z"/>
<path style="fill:#bcbdbe; stroke:none;" d="M394 166L394 169L395 169L394 166M230 167L231 168L230 167z"/>
<path style="fill:#5a578c; stroke:none;" d="M233 167L234 168L233 167M251.333 167.667L251.667 168.333L251.333 167.667M276 167L276 168L284 168L276 167M364.333 167.667L364.667 168.333L364.333 167.667M383 167L383 168L386 168L383 167M230.333 168.667L230.667 169.333L230.333 168.667M268 168L268 169L275 169L268 168M232.333 169.667L232.667 170.333L232.333 169.667M239 169L240 170L239 169M354 169L355 170L354 169M252.333 170.667L252.667 171.333L252.333 170.667M361 170L361 173L362 173L361 170M391 170L391 173L392 173L391 170z"/>
<path style="fill:#bcbdbe; stroke:none;" d="M229 171L228 173L229 171z"/>
<path style="fill:#5a578c; stroke:none;" d="M238 171L239 172L238 171M298.333 171.667L298.667 172.333L298.333 171.667M353 171L354 172L353 171M363.333 171.667L363.667 172.333L363.333 171.667M229 172L230 173L229 172M394 172L395 173L394 172z"/>
<path style="fill:#bcbdbe; stroke:none;" d="M226 173L227 174L226 173z"/>
<path style="fill:#5a578c; stroke:none;" d="M227 173L228 174L227 173M231 173C231.729 176.403 233.806 175.987 237 176L237 175L231 173M237.333 173.667L237.667 174.333L237.333 173.667M253.333 173.667L253.667 174.333L253.333 173.667z"/>
<path style="fill:#bcbdbe; stroke:none;" d="M395 173L396 174L395 173M224 174L225 175L224 174z"/>
<path style="fill:#5a578c; stroke:none;" d="M225 174L226 175L225 174M352 174L353 175L352 174M360 174L360 177L361 177L360 174M380 177L384 175L380 177z"/>
<path style="fill:#030203; stroke:none;" d="M383.91 175.346C380.971 175.4 379.731 180.37 383.174 180.364C386.235 180.359 387.361 175.282 383.91 175.346z"/>
<path style="fill:#5a578c; stroke:none;" d="M385 174L386 175L385 174z"/>
<path style="fill:#bcbdbe; stroke:none;" d="M222 175L223 176L222 175z"/>
<path style="fill:#5a578c; stroke:none;" d="M223 175L224 176L223 175M362.333 175.667L362.667 176.333L362.333 175.667M386 175L387 176L386 175M390.333 175.667L390.667 176.333L390.333 175.667z"/>
<path style="fill:#bcbdbe; stroke:none;" d="M396 175L397 176L396 175M220 176L221 177L220 176z"/>
<path style="fill:#5a578c; stroke:none;" d="M221 176L222 177L221 176M254.333 176.667L254.667 177.333L254.333 176.667M297.333 176.667L297.667 177.333L297.333 176.667M351 176L352 177L351 176M396.333 176.667L396.667 177.333L396.333 176.667z"/>
<path style="fill:#bcbdbe; stroke:none;" d="M218 177L219 178L218 177z"/>
<path style="fill:#5a578c; stroke:none;" d="M219 177L220 178L219 177M387 177L388 178L387 177M217 178L218 179L217 178M359 178L359 181L360 181L359 178M370 178L371 179L370 178M372 178L373 179L372 178M389.333 178.667L389.667 179.333L389.333 178.667M215 179L216 180L215 179M255.333 179.667L255.667 180.333L255.333 179.667M350 179L351 180L350 179M361 179L361 182L362 182L361 179M367 179L368 180L367 179M380 179L381 180L380 179M386 179L387 180L386 179M213 180L214 181L213 180M296 180L297 181L296 180M373 180L373 184L374 184L373 180M385 180L386 181L385 180z"/>
<path style="fill:#bcbdbe; stroke:none;" d="M210 181L211 182L210 181z"/>
<path style="fill:#5a578c; stroke:none;" d="M211 181L212 182L211 181M291 181L291 182L296 182L291 181M349 181L350 182L349 181M364 181L365 182L364 181M382 181L382 182L385 182L382 181M388 181L389 182L388 181z"/>
<path style="fill:#bcbdbe; stroke:none;" d="M208 182L209 183L208 182z"/>
<path style="fill:#5a578c; stroke:none;" d="M209 182L210 183L209 182M256 182L257 183L256 182M279 182L279 183L287 183L279 182z"/>
<path style="fill:#bcbdbe; stroke:none;" d="M397 182L398 183L397 182z"/>
<path style="fill:#5a578c; stroke:none;" d="M207 183L208 184L207 183M267 183L267 184L275 184L267 183M348.333 183.667L348.667 184.333L348.333 183.667M358.333 183.667L358.667 184.333L358.333 183.667M360 183L360 186L361 186L360 183M387 183L388 184L387 183M205 184L206 185L205 184M257 184L257 185L264 185L257 184M317.667 184.333L318.333 184.667L317.667 184.333M363 184L363 187L364 187L363 184M386 184L387 185L386 184M203 185L204 186L203 185M314.667 185.333L315.333 185.667L314.667 185.333z"/>
<path style="fill:#dbb42e; stroke:none;" d="M289 208C297.893 205.418 294.761 201.697 300.188 196.39C305.062 191.623 313.142 189.419 319 186C308.644 182.946 283.08 195.695 289 208z"/>
<path style="fill:#5a578c; stroke:none;" d="M347.333 185.667L347.667 186.333L347.333 185.667M374.333 185.667L374.667 186.333L374.333 185.667M385 185L386 186L385 185M201 186L202 187L201 186M312 186L313 187L312 186M318 186L319 187L318 186M384 186L385 187L384 186M199 187L198 189L199 187M310 187L311 188L310 187M316 187L317 188L316 187M357.333 187.667L357.667 188.333L357.333 187.667M359 187L359 190L360 190L359 187M375 187L376 188L375 187M382 187L383 188L382 187z"/>
<path style="fill:#bcbdbe; stroke:none;" d="M197 188L198 189L197 188z"/>
<path style="fill:#5a578c; stroke:none;" d="M307 188L308 189L307 188M314 188L315 189L314 188M319 188L320 189L319 188M346 188L347 189L346 188M376 188L377 189L376 188M380 188L381 189L380 188M396 188L396 191L397 191L396 188M196 189L197 190L196 189M305 189L306 190L305 189M312 189L313 190L312 189M317 189L318 190L317 189z"/>
<path style="fill:#dbb42e; stroke:none;" d="M301 203C308.492 201.22 319.338 197.698 320 189C313.681 190.82 299.192 194.984 301 203z"/>
<path style="fill:#5a578c; stroke:none;" d="M345.333 189.667L345.667 190.333L345.333 189.667M362 189L362 192L363 192L362 189M194 190L195 191L194 190M302 190L303 191L302 190M310 190L311 191L310 190M315 190L316 191L315 190M320 190L320 193L321 193L320 190M192 191L193 192L192 191M300 191L301 192L300 191M308 191L309 192L308 191M313 191L314 192L313 191M346 191L347 192L346 191z"/>
<path style="fill:#bcbdbe; stroke:none;" d="M396.333 191.667L396.667 192.333L396.333 191.667M190 192L191 193L190 192z"/>
<path style="fill:#5a578c; stroke:none;" d="M297.667 192.333L298.333 192.667L297.667 192.333M306 192L307 193L306 192M310.667 192.333L311.333 192.667L310.667 192.333M348 192L349 193L348 192M356 192L357 193L356 192M358.333 192.667L358.667 193.333L358.333 192.667M189 193L190 194L189 193M221.667 193.333L222.333 193.667L221.667 193.333M295 193L296 194L295 193M304 193L305 194L304 193M308.667 193.333L309.333 193.667L308.667 193.333M345 193L346 194L345 193M349 193L350 194L349 193M187 194L186 196L187 194M203 194L204 195L203 194z"/>
<path style="fill:#dbb42e; stroke:none;" d="M203 196L207 195L203 196z"/>
<path style="fill:#5a578c; stroke:none;" d="M206 194L207 195L206 194z"/>
<path style="fill:#dbb42e; stroke:none;" d="M220 194L220 196L224 196L224 194L220 194z"/>
<path style="fill:#5a578c; stroke:none;" d="M293 194L294 195L293 194M302 194L303 195L302 194M306.667 194.333L307.333 194.667L306.667 194.333M319 194L320 195L319 194z"/>
<path style="fill:#dbb42e; stroke:none;" d="M345 194L348 205L354 203L345 194z"/>
<path style="fill:#5a578c; stroke:none;" d="M347 194L348 195L347 194M350 194L351 195L350 194M361 194L361 199L362 199L361 194z"/>
<path style="fill:#bcbdbe; stroke:none;" d="M185 195L186 196L185 195z"/>
<path style="fill:#5a578c; stroke:none;" d="M224 195L225 196L224 195M290.667 195.333L291.333 195.667L290.667 195.333M300 195L301 196L300 195M304 195L305 196L304 195M318 195L319 196L318 195M341 195L342 196L341 195z"/>
<path style="fill:#dbb42e; stroke:none;" d="M342 195C337.118 201.718 338.663 205.261 339 213C346.419 208.66 347.119 201.871 342 195z"/>
<path style="fill:#5a578c; stroke:none;" d="M345.333 195.667L345.667 196.333L345.333 195.667M348 195L349 196L348 195M351 195L352 196L351 195M395.333 195.667L395.667 196.333L395.333 195.667M184 196L185 197L184 196M203 196L204 197L203 196M205.667 196.333L206.333 196.667L205.667 196.333M221 196L221 197L224 197L221 196M288.667 196.333L289.333 196.667L288.667 196.333M302 196L303 197L302 196M316 196L317 197L316 196M343 196L344 197L343 196M349 196L350 197L349 196M352 196L353 197L352 196M355.333 196.667L355.667 197.333L355.333 196.667z"/>
<path style="fill:#bcbdbe; stroke:none;" d="M182 197L183 198L182 197z"/>
<path style="fill:#5a578c; stroke:none;" d="M183 197L184 198L183 197M238 197L238 198L241 199L238 197M287 197L288 198L287 197M314.667 197.333L315.333 197.667L314.667 197.333M340 197L341 198L340 197M350 197L351 198L350 197M357.333 197.667L357.667 198.333L357.333 197.667z"/>
<path style="fill:#bcbdbe; stroke:none;" d="M395 197L396 198L395 197z"/>
<path style="fill:#5a578c; stroke:none;" d="M181 198L182 199L181 198z"/>
<path style="fill:#dbb42e; stroke:none;" d="M237 198L241 200L237 198z"/>
<path style="fill:#5a578c; stroke:none;" d="M297 198L297 201L298 201L297 198M312 198L313 199L312 198M339 198L340 199L339 198M346.333 198.667L346.667 199.333L346.333 198.667M351 198L352 199L351 198M180 199L181 200L180 199M299 199L300 200L299 199M310 199L311 200L310 199M338 199L339 200L338 199M344 199L345 200L344 199M354 199L355 200L354 199M360 199L361 200L360 199z"/>
<path style="fill:#bcbdbe; stroke:none;" d="M178 200L172 207L178 200z"/>
<path style="fill:#5a578c; stroke:none;" d="M189 200L190 201L189 200z"/>
<path style="fill:#dbb42e; stroke:none;" d="M189 203L192 200L189 203z"/>
<path style="fill:#5a578c; stroke:none;" d="M237 200L238 201L237 200M240 200L241 201L240 200M308 200L309 201L308 200M337 200L338 201L337 200M352 200L353 201L352 200M358 200L359 201L358 200M390 200L391 201L390 200z"/>
<path style="fill:#2f9fc1; stroke:none;" d="M391 200C382.333 203.323 384 211.971 384 220L390 220L391 200z"/>
<path style="fill:#5a578c; stroke:none;" d="M392 200L392 203L393 203L392 200M306 201L307 202L306 201M347 201L347 204L348 204L347 201M353 201L354 202L353 201M385 201L386 202L385 201M394 201L394 204L395 204L394 201M300 202L301 203L300 202M303 202L304 203L303 202M345.333 202.667L345.667 203.333L345.333 202.667M298.333 203.667L298.667 204.333L298.333 203.667M301 203L302 204L301 203M337.333 203.667L337.667 204.333L337.333 203.667M384 203L384 207L385 207L384 203z"/>
<path style="fill:#dbb42e; stroke:none;" d="M334 204C329.166 210.98 328.643 213.688 329 222C335.31 218.309 338.924 210.499 334 204z"/>
<path style="fill:#5a578c; stroke:none;" d="M335 204L336 205L335 204M351 204L352 205L351 204z"/>
<path style="fill:#bcbdbe; stroke:none;" d="M394 204L394 207L395 207L394 204z"/>
<path style="fill:#5a578c; stroke:none;" d="M287 205L288 206L287 205M296 205L297 206L296 205M333 205L334 206L333 205M348.667 205.333L349.333 205.667L348.667 205.333M353 205L354 206L353 205z"/>
<path style="fill:#2f9fc1; stroke:none;" d="M346 212C353.882 212.693 358.843 216.822 362 224L369 223C366.014 211.586 356.416 198.514 346 212z"/>
<path style="fill:#5a578c; stroke:none;" d="M356 205L357 206L356 205M294 206L295 207L294 206M332 206L333 207L332 206M346.333 206.667L346.667 207.333L346.333 206.667M358 206L359 207L358 206M172 207L173 208L172 207M288 207L289 208L288 207M290.667 207.333L291.333 207.667L290.667 207.333M331 207L332 208L331 207M336 207L336 216L337 216L336 207M338 207L338 211L339 211L338 207M350 207L351 208L350 207M360 207L361 208L360 207M171 208L172 209L171 208M330 208L331 209L330 208M345 208L346 209L345 208z"/>
<path style="fill:#bcbdbe; stroke:none;" d="M170 209L171 210L170 209z"/>
<path style="fill:#5a578c; stroke:none;" d="M178 210L178 211L181 210L179 212L179 213L182 212L182 210L181 209L178 210M203 209L203 210L207 212L208 212L209 209L203 209M329 209L330 210L329 209M344 209L345 210L344 209M347 209L348 210L347 209M391 209L391 214L392 214L391 209z"/>
<path style="fill:#bcbdbe; stroke:none;" d="M169 210L170 211L169 210z"/>
<path style="fill:#dbb42e; stroke:none;" d="M179 210L179 212L181 212L181 210L179 210z"/>
<path style="fill:#5a578c; stroke:none;" d="M199 210L199 211L202 211L199 210z"/>
<path style="fill:#dbb42e; stroke:none;" d="M182 228L193 234C194.507 223.794 199.602 216.74 208 211C197.572 206.747 184.737 218.785 182 228z"/>
<path style="fill:#5a578c; stroke:none;" d="M211 211L211 212L215 211L211 211M246 213L247 213L250 213C250.595 209.443 247.219 210.812 246 213M328 210L329 211L328 210M346 210L347 211L346 210M169 211L170 212L169 211M197 211L198 212L197 211z"/>
<path style="fill:#dbb42e; stroke:none;" d="M195 236L225 238C227.848 229.092 227.999 209.732 213 211.502C201.665 212.839 196.3 226.356 195 236z"/>
<path style="fill:#5a578c; stroke:none;" d="M216 211L217 212L216 211z"/>
<path style="fill:#dbb42e; stroke:none;" d="M247 211L247 213L250 213L250 211L247 211z"/>
<path style="fill:#5a578c; stroke:none;" d="M341 211L342 212L341 211M345 211L346 212L345 211M364 211L365 212L364 211M393 211L393 216L394 216L393 211z"/>
<path style="fill:#bcbdbe; stroke:none;" d="M168 212L169 213L168 212z"/>
<path style="fill:#5a578c; stroke:none;" d="M195 212L196 213L195 212M205 212L206 213L205 212M209 212L210 213L209 212M218 212L219 213L218 212M340 212L341 213L340 212M349.667 212.333L350.333 212.667L349.667 212.333M365 212L366 213L365 212M168 213L169 214L168 213M193 213L194 214L193 213M207 213L208 214L207 213M219 213L220 214L219 213M339 213L340 214L339 213z"/>
<path style="fill:#bcbdbe; stroke:none;" d="M167 214L168 215L167 214z"/>
<path style="fill:#5a578c; stroke:none;" d="M192 214L193 215L192 214M202 214L203 215L202 214M206 214L207 215L206 214M221 214L222 215L221 214M324 214L320 219L324 214z"/>
<path style="fill:#dbb42e; stroke:none;" d="M325 214L318 220L320 231C326.102 226.65 327.99 221.058 325 214z"/>
<path style="fill:#5a578c; stroke:none;" d="M366 214L367 215L366 214M167 215L168 216L167 215M201 215L202 216L201 215M222 215L223 216L222 215M383 215L382 237L389 237L391 218L390 218L384 220L383 215z"/>
<path style="fill:#bcbdbe; stroke:none;" d="M166 216L167 217L166 216z"/>
<path style="fill:#5a578c; stroke:none;" d="M189 216L190 217L189 216M200 216L201 217L200 216M203 216L204 217L203 216M223 216L224 217L223 216M328 216L328 220L329 220L328 216M367 216L368 217L367 216z"/>
<path style="fill:#bcbdbe; stroke:none;" d="M393 216L393 219L394 219L393 216z"/>
<path style="fill:#5a578c; stroke:none;" d="M166 217L167 218L166 217M188 217L189 218L188 217M199 217L200 218L199 217M202 217L203 218L202 217M224 217L225 218L224 217M358 217L359 218L358 217M187 218L188 219L187 218M201 218L202 219L201 218M326 218L326 222L327 222L326 218M359 218L360 219L359 218z"/>
<path style="fill:#bcbdbe; stroke:none;" d="M165 219L166 220L165 219z"/>
<path style="fill:#5a578c; stroke:none;" d="M186 219L187 220L186 219M198 219L199 220L198 219M225 219L226 220L225 219M368 219L368 222L369 222L368 219M165 220L166 221L165 220M185 220L186 221L185 220M197 220L198 221L197 220M226.333 220.667L226.667 221.333L226.333 220.667M331 220L332 221L331 220M360.333 220.667L360.667 221.333L360.333 220.667M172.333 221.667L172.667 222.333L172.333 221.667z"/>
<path style="fill:#dbb42e; stroke:none;" d="M173.333 221.667L173.667 222.333L173.333 221.667z"/>
<path style="fill:#5a578c; stroke:none;" d="M174.333 221.667L174.667 222.333L174.333 221.667M199 221L200 222L199 221M330 221L331 222L330 221M196 222L197 223L196 222M312 225L316 225L317 225L316 222L312 225M318 222L318 225L319 225L318 222M329 222L330 223L329 222M361.333 222.667L361.667 223.333L361.333 222.667z"/>
<path style="fill:#bcbdbe; stroke:none;" d="M164 223L165 224L164 223z"/>
<path style="fill:#5a578c; stroke:none;" d="M183 223L184 224L183 223M198 223L199 224L198 223M227.333 223.667L227.667 224.333L227.333 223.667z"/>
<path style="fill:#dbb42e; stroke:none;" d="M310 240C317.357 236.528 317.723 230.237 316 223C308.441 226.027 310 233.036 310 240z"/>
<path style="fill:#5a578c; stroke:none;" d="M364 240C370.953 236.184 370.294 229.97 369 223C359.378 223.316 362.696 232.974 364 240M392 223L392 227L393 227L392 223M164 224L165 225L164 224M182.333 224.667L182.667 225.333L182.333 224.667M195.333 224.667L195.667 225.333L195.333 224.667M251 224L252 225L251 224M197 225L198 226L197 225z"/>
<path style="fill:#dbb42e; stroke:none;" d="M250 225L250 227L253 227L253 225L250 225z"/>
<path style="fill:#5a578c; stroke:none;" d="M310 225L311 226L310 225M326 225L327 226L326 225M181.333 226.667L181.667 227.333L181.333 226.667M299 226L300 227L299 226z"/>
<path style="fill:#dbb42e; stroke:none;" d="M300 226C288.091 232.951 274.515 238.203 261 241L255 264C266.007 261.865 288.84 260.185 296.142 250.61C298.594 247.394 298.666 241.867 299.389 238C300.12 234.094 301.471 229.768 300 226z"/>
<path style="fill:#5a578c; stroke:none;" d="M301 226L302 227L301 226M325 226L326 227L325 226z"/>
<path style="fill:#bcbdbe; stroke:none;" d="M163.333 227.667L163.667 228.333L163.333 227.667z"/>
<path style="fill:#5a578c; stroke:none;" d="M194 227L195 228L194 227M196.333 227.667L196.667 228.333L196.333 227.667M250.667 227.333L251.333 227.667L250.667 227.333M297 227L298 228L297 227M306.667 227.333L307.333 227.667L306.667 227.333M319 227L321 232L319 227M324 227L325 228L324 227z"/>
<path style="fill:#bcbdbe; stroke:none;" d="M392.333 227.667L392.667 228.333L392.333 227.667z"/>
<path style="fill:#5a578c; stroke:none;" d="M183 228L184 229L183 228M295 228L296 229L295 228M304 228L305 229L304 228z"/>
<path style="fill:#dbb42e; stroke:none;" d="M300 249C308.895 243.84 308 237.255 308 228C300.55 229.625 300.819 242.553 300 249z"/>
<path style="fill:#5a578c; stroke:none;" d="M317 228L317 232L318 232L317 228M323 228L324 229L323 228M163 229L163 232L164 232L163 229M186 229L187 230L186 229M227.333 229.667L227.667 230.333L227.333 229.667M293 229L294 230L293 229M322 229L323 230L322 229M193.333 230.667L193.667 231.333L193.333 230.667M195 230L195 233L196 233L195 230M291 230L292 231L291 230M321 230L322 231L321 230M189 231L190 232L189 231M289 231L290 232L289 231M300.333 231.667L300.667 232.333L300.333 231.667M287 232L288 233L287 232M302 232L302 235L303 235L302 232M359 232L357 235L359 232z"/>
<path style="fill:#2f9fc1; stroke:none;" d="M360 232L335 253C345.299 250.548 367.006 248.697 360 232z"/>
<path style="fill:#5a578c; stroke:none;" d="M391 232L391 237L392 237L391 232z"/>
<path style="fill:#2f9fc1; stroke:none;" d="M165 233C165 241.348 161.209 263.287 168 269L172 234L165 233z"/>
<path style="fill:#5a578c; stroke:none;" d="M169 233L170 234L169 233M226.333 233.667L226.667 234.333L226.333 233.667M284 233L285 234L284 233M281.667 234.333L282.333 234.667L281.667 234.333M199 235L199 236L206 236L199 235M209 235L209 236L215 236L209 235M278.667 235.333L279.333 235.667L278.667 235.333M316 235L317 236L316 235M171 236L171 239L172 239L171 236M195.667 236.333L196.333 236.667L195.667 236.333M217 236L217 237L220 237L217 236M225 236L226 237L225 236M275.667 236.333L276.333 236.667L275.667 236.333M315 236L316 237L315 236z"/>
<path style="fill:#bcbdbe; stroke:none;" d="M162 237L162 242L163 242L162 237z"/>
<path style="fill:#5a578c; stroke:none;" d="M179 238L179 239L186 241L179 238M221.667 237.333L222.333 237.667L221.667 237.333M272.667 237.333L273.333 237.667L272.667 237.333M299.333 237.667L299.667 238.333L299.333 237.667M314 237L315 238L314 237M353 237L354 238L353 237M361 237L361 243L362 243L361 237z"/>
<path style="fill:#bcbdbe; stroke:none;" d="M391 237L391 245L392 245L391 237z"/>
<path style="fill:#dbb42e; stroke:none;" d="M180 238L177 250L182 251C180.464 256.933 177.089 263.946 183 268L188 242L180 238z"/>
<path style="fill:#5a578c; stroke:none;" d="M223.667 238.333L224.333 238.667L223.667 238.333M269.667 238.333L270.333 238.667L269.667 238.333M301.333 238.667L301.667 239.333L301.333 238.667M352 238L353 239L352 238M266.667 239.333L267.333 239.667L266.667 239.333M251 240L252 243L253 243L251 240M263 240L264 241L263 240M310 240L311 241L310 240M349 240L350 241L349 240M178.333 241.667L178.667 242.333L178.333 241.667M187 241L188 242L187 241M249.333 241.667L249.667 242.333L249.333 241.667z"/>
<path style="fill:#dbb42e; stroke:none;" d="M250 241L250 243L252 243L252 241L250 241z"/>
<path style="fill:#5a578c; stroke:none;" d="M348 241L349 242L348 241M162 242L162 256L163 256L162 242M170 242L170 245L171 245L170 242M260 242L260 245L261 245L260 242M298 242L298 245L299 245L298 242M308 242L309 243L308 242M187 243L187 247L188 247L187 243M300 243L300 246L301 246L300 243M307 243L308 244L307 243M360 243L361 244L360 243M198 248L199 248L199 245L203 245C200.012 244.017 198.937 245.15 198 248M306 244L307 245L306 244M344 244L345 245L344 244M177.333 245.667L177.667 246.333L177.333 245.667z"/>
<path style="fill:#dbb42e; stroke:none;" d="M199 245L194 275L205 278C207.222 266.031 208.011 265.901 220 266L222 249L199 245z"/>
<path style="fill:#5a578c; stroke:none;" d="M206.667 245.333L207.333 245.667L206.667 245.333M305 245L306 246L305 245M343 245L344 246L343 245M357 245L358 246L357 245M391 245L391 250L392 250L391 245M211.667 246.333L212.333 246.667L211.667 246.333M356 246L357 247L356 246M215.667 247.333L216.333 247.667L215.667 247.333z"/>
<path style="fill:#2f9fc1; stroke:none;" d="M233 247L229 270L243 269L237.117 262.621L238 247L233 247z"/>
<path style="fill:#5a578c; stroke:none;" d="M238 247L238 251L239 251L238 247M302 247L303 248L302 247M306 247C302.364 253.814 302.859 272.33 314.001 270.67C326.274 268.841 337.713 259.319 348 253L348 252C343.264 252 337.309 251.124 332.83 252.934C324.662 256.237 312.194 272.191 308.809 256.005C308.39 254.002 308.162 252.034 308 250L307 250L305 253L306 247M340 247L341 248L340 247M354 247L355 248L354 247M169 248L169 252L170 252L169 248M219.667 248.333L220.333 248.667L219.667 248.333M259 248L260 249L259 248M297 248L297 251L298 251L297 248M301 248L302 249L301 248z"/>
<path style="fill:#2f9fc1; stroke:none;" d="M306 248L305 253L307 253L306 248z"/>
<path style="fill:#5a578c; stroke:none;" d="M339 248L340 249L339 248M353 248L354 249L353 248M176 249L177 250L176 249M232.333 249.667L232.667 250.333L232.333 249.667M337 249L338 250L337 249M351 249L352 250L351 249M177 250L177 251L181 251L177 250M186 250L186 254L187 254L186 250M197 250L197 255L198 255L197 250M336 250L337 251L336 250M350 250L351 251L350 250M389.667 250.333L390.333 250.667L389.667 250.333M181.333 251.667L181.667 252.333L181.333 251.667M296 251L297 252L296 251M335 251L336 252L335 251M348.667 251.333L349.333 251.667L348.667 251.333M387 251L388 252L387 251z"/>
<path style="fill:#bcbdbe; stroke:none;" d="M388 251L389 252L388 251z"/>
<path style="fill:#5a578c; stroke:none;" d="M221 252L221 255L222 255L221 252M258 252L259 253L258 252M294 252L295 253L294 252z"/>
<path style="fill:#bcbdbe; stroke:none;" d="M372 252L373 253L372 252z"/>
<path style="fill:#5a578c; stroke:none;" d="M373.333 252.667L373.667 253.333L373.333 252.667M385 252L386 253L385 252z"/>
<path style="fill:#bcbdbe; stroke:none;" d="M386 252L387 253L386 252z"/>
<path style="fill:#5a578c; stroke:none;" d="M237 253L237 257L238 257L237 253M292 253L293 254L292 253M371 253L372 254L371 253M382 253L383 254L382 253z"/>
<path style="fill:#bcbdbe; stroke:none;" d="M383 253L384 254L383 253z"/>
<path style="fill:#5a578c; stroke:none;" d="M231.333 254.667L231.667 255.333L231.333 254.667z"/>
<path style="fill:#dbb42e; stroke:none;" d="M248 254L248 257L250 254L248 254z"/>
<path style="fill:#5a578c; stroke:none;" d="M250.333 254.667L250.667 255.333L250.333 254.667M290 254L291 255L290 254z"/>
<path style="fill:#bcbdbe; stroke:none;" d="M371 254L372 255L371 254M373 254L374 255L373 254z"/>
<path style="fill:#5a578c; stroke:none;" d="M380 254L381 255L380 254M168 255L168 263L169 263L168 255M180 255L180 258L181 258L180 255M247.333 255.667L247.667 256.333L247.333 255.667M257 255L258 256L257 255M287.667 255.333L288.333 255.667L287.667 255.333M370 255L371 256L370 255M378 255L379 256L378 255z"/>
<path style="fill:#bcbdbe; stroke:none;" d="M162 256L162 265L163 265L162 256z"/>
<path style="fill:#5a578c; stroke:none;" d="M249 256L250 257L249 256M285 256L286 257L285 256M369 256L370 257L369 256M374.667 256.333L375.333 256.667L374.667 256.333z"/>
<path style="fill:#bcbdbe; stroke:none;" d="M376 256L377 257L376 256z"/>
<path style="fill:#5a578c; stroke:none;" d="M185 257L185 260L186 260L185 257M196 257L196 261L197 261L196 257M282 257L283 258L282 257M256 258L257 259L256 258M279 258L280 259L279 258M230.333 259.667L230.667 260.333L230.333 259.667M236 259L238 264L236 259M275.667 259.333L276.333 259.667L275.667 259.333M366 259L365 261L366 259M179.333 260.667L179.667 261.333L179.333 260.667M220 260L220 265L221 265L220 260M255 260L256 261L255 260M271.667 260.333L272.333 260.667L271.667 260.333M267.667 261.333L268.333 261.667L267.667 261.333M363 261L364 262L363 261M184 262L184 265L185 265L184 262M254.333 262.667L254.667 263.333L254.333 262.667M262 262L262 263L265 263L262 262M360.667 262.333L361.333 262.667L360.667 262.333M229 263L226.576 276L222.436 289.357L208 288.424L181 276.54L166 269L166 264L165 264C165.117 273.984 172.274 279.752 180 285.115C196.263 296.403 216.343 302 236 302C247.588 302 258.75 302.39 264 290C266.643 291.943 270.357 297.587 274.015 296.654C277.6 295.74 279.297 291.246 283 290.592C286.635 289.949 289.317 294.152 292.999 294.178C303.528 294.254 300.21 277.516 299 271L242 279C242.193 269.584 239.347 264.478 229 270L229 263M257 263L257 264L260 264L257 263M356 263L356 264L359 264L356 263z"/>
<path style="fill:#bcbdbe; stroke:none;" d="M359 263L360 264L359 263z"/>
<path style="fill:#5a578c; stroke:none;" d="M167 264L167 268L168 268L167 264M195 264L195 268L196 268L195 264M238.667 264.333L239.333 264.667L238.667 264.333M353.667 264.333L354.333 264.667L353.667 264.333z"/>
<path style="fill:#bcbdbe; stroke:none;" d="M355 264L356 265L355 264z"/>
<path style="fill:#5a578c; stroke:none;" d="M207 265L207 266L213 266L207 265M240 265L241 266L240 265M349.667 265.333L350.333 265.667L349.667 265.333z"/>
<path style="fill:#bcbdbe; stroke:none;" d="M351 265L352 266L351 265z"/>
<path style="fill:#5a578c; stroke:none;" d="M180 266L181 267L180 266M183.333 266.667L183.667 267.333L183.333 266.667M206 266L206 269L207 269L206 266M241.667 266.333L242.333 266.667L241.667 266.333M346.667 266.333L347.333 266.667L346.667 266.333M181 267L182 268L181 267M344 267L345 268L344 267M342 268L343 269L342 268z"/>
<path style="fill:#bcbdbe; stroke:none;" d="M341 269L342 270L341 269z"/>
<path style="fill:#5a578c; stroke:none;" d="M194 270L194 273L195 273L194 270M339 270L340 271L339 270M163 271L164 272L163 271z"/>
<path style="fill:#bcbdbe; stroke:none;" d="M338 271L339 272L338 271z"/>
<path style="fill:#5a578c; stroke:none;" d="M336 272L335 274L336 272z"/>
<path style="fill:#bcbdbe; stroke:none;" d="M164 273L166 275L164 273M334 274L335 275L334 274z"/>
<path style="fill:#5a578c; stroke:none;" d="M166 275L167 276L166 275M195 275L196 276L195 275M205 275L202 278L202 279L206 279L205 275M332 275L330 278L332 275M167 276L168 277L167 276M197 276L198 277L197 276M168 277L169 278L168 277M199.667 277.333L200.333 277.667L199.667 277.333M169 278L170 279L169 278z"/>
<path style="fill:#bcbdbe; stroke:none;" d="M329 278L330 279L329 278z"/>
<path style="fill:#5a578c; stroke:none;" d="M170 279L171 280L170 279z"/>
<path style="fill:#bcbdbe; stroke:none;" d="M328 279L329 280L328 279z"/>
<path style="fill:#5a578c; stroke:none;" d="M171 280L172 281L171 280M326 280L324 283L326 280M172 281L173 282L172 281M173 282L174 283L173 282z"/>
<path style="fill:#bcbdbe; stroke:none;" d="M174 283L175 284L174 283M323 283L324 284L323 283M175 284L176 285L175 284z"/>
<path style="fill:#5a578c; stroke:none;" d="M176 284L177 285L176 284M321 284L320 286L321 284M177 285L178 286L177 285z"/>
<path style="fill:#bcbdbe; stroke:none;" d="M178 286L179 287L178 286z"/>
<path style="fill:#5a578c; stroke:none;" d="M318 286L319 287L318 286z"/>
<path style="fill:#bcbdbe; stroke:none;" d="M319 286L320 287L319 286z"/>
<path style="fill:#5a578c; stroke:none;" d="M180 287L182 289L180 287M317 287L318 288L317 287M315 288L316 289L315 288z"/>
<path style="fill:#bcbdbe; stroke:none;" d="M182 289L183 290L182 289z"/>
<path style="fill:#5a578c; stroke:none;" d="M183 289L184 290L183 289M313 289L314 290L313 289z"/>
<path style="fill:#bcbdbe; stroke:none;" d="M314 289L315 290L314 289z"/>
<path style="fill:#5a578c; stroke:none;" d="M184 290L185 291L184 290M310.667 290.333L311.333 290.667L310.667 290.333M186 291L187 292L186 291M282 291L277 297L282 291z"/>
<path style="fill:#bcbdbe; stroke:none;" d="M283 291L284 292L283 291z"/>
<path style="fill:#5a578c; stroke:none;" d="M308 291L309 292L308 291z"/>
<path style="fill:#bcbdbe; stroke:none;" d="M309 291L310 292L309 291M187 292L188 293L187 292z"/>
<path style="fill:#5a578c; stroke:none;" d="M188 292L189 293L188 292z"/>
<path style="fill:#bcbdbe; stroke:none;" d="M284 292L285 293L284 292z"/>
<path style="fill:#5a578c; stroke:none;" d="M285 292L286 293L285 292M305.667 292.333L306.333 292.667L305.667 292.333z"/>
<path style="fill:#bcbdbe; stroke:none;" d="M189 293L190 294L189 293z"/>
<path style="fill:#5a578c; stroke:none;" d="M190 293L191 294L190 293M264 293L264 294L269 297L264 293M286 293L287 294L286 293M302.667 293.333L303.333 293.667L302.667 293.333z"/>
<path style="fill:#bcbdbe; stroke:none;" d="M304 293L305 294L304 293M191 294L192 295L191 294z"/>
<path style="fill:#5a578c; stroke:none;" d="M192 294L193 295L192 294z"/>
<path style="fill:#bcbdbe; stroke:none;" d="M264 294L265 295L264 294z"/>
<path style="fill:#5a578c; stroke:none;" d="M287 294L288 295L287 294M300 294L301 295L300 294z"/>
<path style="fill:#bcbdbe; stroke:none;" d="M301 294L302 295L301 294z"/>
<path style="fill:#5a578c; stroke:none;" d="M194 295L195 296L194 295M263 295L264 296L263 295M288 295L289 296L288 295M297 295L298 296L297 295M196 296L197 297L196 296M262 296L263 297L262 296M289 296L290 297L289 296M294 296L295 297L294 296z"/>
<path style="fill:#bcbdbe; stroke:none;" d="M198 297L199 298L198 297z"/>
<path style="fill:#5a578c; stroke:none;" d="M199 297L200 298L199 297z"/>
<path style="fill:#bcbdbe; stroke:none;" d="M262 297L263 298L262 297M268 297L269 298L268 297z"/>
<path style="fill:#5a578c; stroke:none;" d="M290.667 297.333L291.333 297.667L290.667 297.333z"/>
<path style="fill:#bcbdbe; stroke:none;" d="M201 298L202 299L201 298z"/>
<path style="fill:#5a578c; stroke:none;" d="M202 298L203 299L202 298z"/>
<path style="fill:#bcbdbe; stroke:none;" d="M261 298L262 299L261 298M269 298L270 299L269 298M276 298L277 299L276 298z"/>
<path style="fill:#5a578c; stroke:none;" d="M204.667 299.333L205.333 299.667L204.667 299.333z"/>
<path style="fill:#bcbdbe; stroke:none;" d="M260 299L261 300L260 299z"/>
<path style="fill:#5a578c; stroke:none;" d="M270 299L271 300L270 299z"/>
<path style="fill:#bcbdbe; stroke:none;" d="M275 299L276 300L275 299M207 300L208 301L207 300z"/>
<path style="fill:#5a578c; stroke:none;" d="M208 300L209 301L208 300z"/>
<path style="fill:#bcbdbe; stroke:none;" d="M259 300L260 301L259 300z"/>
<path style="fill:#5a578c; stroke:none;" d="M271 300L272 301L271 300z"/>
<path style="fill:#bcbdbe; stroke:none;" d="M274 300L275 301L274 300M210 301L211 302L210 301z"/>
<path style="fill:#5a578c; stroke:none;" d="M211.667 301.333L212.333 301.667L211.667 301.333M257 301L258 302L257 301z"/>
<path style="fill:#bcbdbe; stroke:none;" d="M272.667 301.333L273.333 301.667L272.667 301.333M214 302L215 303L214 302z"/>
<path style="fill:#5a578c; stroke:none;" d="M215 302L215 303L218 303L215 302M255 302L256 303L255 302z"/>
<path style="fill:#bcbdbe; stroke:none;" d="M256 302L257 303L256 302M219 303L220 304L219 303z"/>
<path style="fill:#5a578c; stroke:none;" d="M220 303L220 304L225 304L220 303M251.667 303.333L252.333 303.667L251.667 303.333z"/>
<path style="fill:#bcbdbe; stroke:none;" d="M253 303L254 304L253 303M226.667 304.333L227.333 304.667L226.667 304.333z"/>
<path style="fill:#5a578c; stroke:none;" d="M228 304L228 305L248 305L228 304z"/>
<path style="fill:#bcbdbe; stroke:none;" d="M248.667 304.333L249.333 304.667L248.667 304.333z"/>
</svg>
